<?xml version="1.0" encoding="UTF-8"?>
<svg xmlns="http://www.w3.org/2000/svg" xmlns:xlink="http://www.w3.org/1999/xlink" width="30pt" height="30pt" viewBox="0 0 30 30" version="1.1">
<g id="surface1">
<path style=" stroke:none;fill-rule:nonzero;fill:rgb(43.137255%,52.941176%,96.078431%);fill-opacity:1;" d="M 24.257812 0.585938 L 5.742188 0.585938 C 2.894531 0.585938 0.585938 2.894531 0.585938 5.742188 L 0.585938 24.257812 C 0.585938 27.105469 2.894531 29.414062 5.742188 29.414062 L 15 29.414062 C 15 29.40625 15 23.269531 15 17.898438 L 11.542969 17.898438 L 11.542969 13.738281 L 15 13.738281 L 15 10.691406 C 15 8.742188 15.90625 5.714844 19.933594 5.714844 L 24.300781 5.714844 L 24.300781 9.796875 C 24.300781 9.796875 21.398438 9.796875 20.976562 9.796875 C 20.527344 9.796875 19.921875 10.007812 19.921875 10.929688 L 19.921875 13.714844 L 24.328125 13.714844 L 23.90625 17.898438 L 19.921875 17.898438 C 19.921875 23.214844 19.921875 29.40625 19.921875 29.414062 L 24.257812 29.414062 C 27.105469 29.414062 29.414062 27.105469 29.414062 24.257812 L 29.414062 5.742188 C 29.414062 2.894531 27.105469 0.585938 24.257812 0.585938 Z M 24.257812 0.585938 "/>
<path style=" stroke:none;fill-rule:nonzero;fill:rgb(0%,0%,0%);fill-opacity:1;" d="M 15 23.171875 C 14.675781 23.171875 14.414062 22.910156 14.414062 22.585938 L 14.414062 22.582031 C 14.414062 22.578125 14.414062 22.578125 14.414062 22.578125 C 14.414062 22.253906 14.675781 21.992188 15 21.992188 C 15.324219 21.992188 15.585938 22.253906 15.585938 22.578125 C 15.585938 22.578125 15.585938 22.578125 15.585938 22.582031 C 15.585938 22.582031 15.585938 22.585938 15.585938 22.585938 C 15.585938 22.910156 15.324219 23.171875 15 23.171875 Z M 15 23.171875 "/>
<path style=" stroke:none;fill-rule:nonzero;fill:rgb(0%,0%,0%);fill-opacity:1;" d="M 24.257812 30 L 19.921875 30 C 19.597656 30 19.335938 29.738281 19.335938 29.414062 L 19.335938 17.898438 C 19.335938 17.578125 19.597656 17.3125 19.921875 17.3125 L 23.375 17.3125 L 23.679688 14.300781 L 19.921875 14.300781 C 19.597656 14.300781 19.335938 14.039062 19.335938 13.714844 L 19.335938 10.929688 C 19.335938 9.660156 20.21875 9.210938 20.976562 9.210938 L 23.714844 9.210938 L 23.714844 6.300781 L 19.933594 6.300781 C 16.007812 6.300781 15.585938 9.371094 15.585938 10.691406 L 15.585938 13.738281 C 15.585938 14.0625 15.324219 14.324219 15 14.324219 L 12.128906 14.324219 L 12.128906 17.3125 L 15 17.3125 C 15.324219 17.3125 15.585938 17.578125 15.585938 17.898438 L 15.585938 20.15625 C 15.585938 20.480469 15.324219 20.742188 15 20.742188 C 14.675781 20.742188 14.414062 20.480469 14.414062 20.15625 L 14.414062 18.484375 L 11.542969 18.484375 C 11.21875 18.484375 10.957031 18.222656 10.957031 17.898438 L 10.957031 13.738281 C 10.957031 13.417969 11.21875 13.152344 11.542969 13.152344 L 14.414062 13.152344 L 14.414062 10.691406 C 14.414062 9.910156 14.554688 8.402344 15.484375 7.128906 C 16.148438 6.214844 17.460938 5.128906 19.933594 5.128906 L 24.300781 5.128906 C 24.625 5.128906 24.886719 5.390625 24.886719 5.714844 L 24.886719 9.796875 C 24.886719 10.121094 24.625 10.382812 24.300781 10.382812 L 20.976562 10.382812 C 20.632812 10.382812 20.507812 10.53125 20.507812 10.929688 L 20.507812 13.128906 L 24.328125 13.128906 C 24.492188 13.128906 24.648438 13.199219 24.761719 13.320312 C 24.871094 13.445312 24.925781 13.609375 24.910156 13.773438 L 24.488281 17.960938 C 24.457031 18.257812 24.207031 18.488281 23.90625 18.488281 L 20.507812 18.488281 L 20.507812 28.828125 L 24.257812 28.828125 C 26.777344 28.828125 28.828125 26.777344 28.828125 24.257812 L 28.828125 5.742188 C 28.828125 3.222656 26.777344 1.171875 24.257812 1.171875 L 5.742188 1.171875 C 3.222656 1.171875 1.171875 3.222656 1.171875 5.742188 L 1.171875 24.257812 C 1.171875 26.777344 3.222656 28.828125 5.742188 28.828125 L 14.414062 28.828125 L 14.414062 24.875 C 14.414062 24.550781 14.675781 24.289062 15 24.289062 C 15.324219 24.289062 15.585938 24.550781 15.585938 24.875 L 15.585938 29.414062 C 15.585938 29.738281 15.324219 30 15 30 L 5.742188 30 C 2.574219 30 0 27.425781 0 24.257812 L 0 5.742188 C 0 2.574219 2.574219 0 5.742188 0 L 24.257812 0 C 27.425781 0 30 2.574219 30 5.742188 L 30 24.257812 C 30 27.425781 27.425781 30 24.257812 30 Z M 24.257812 30 "/>
<path style=" stroke:none;fill-rule:nonzero;fill:rgb(0%,0%,0%);fill-opacity:1;" d="M 3.398438 12.070312 C 3.074219 12.070312 2.8125 11.808594 2.8125 11.484375 L 2.8125 6.59375 C 2.8125 6.269531 3.074219 6.007812 3.398438 6.007812 C 3.722656 6.007812 3.984375 6.269531 3.984375 6.59375 L 3.984375 11.484375 C 3.984375 11.808594 3.722656 12.070312 3.398438 12.070312 Z M 3.398438 12.070312 "/>
<path style=" stroke:none;fill-rule:nonzero;fill:rgb(0%,0%,0%);fill-opacity:1;" d="M 3.398438 14.617188 C 3.074219 14.617188 2.8125 14.355469 2.8125 14.03125 L 2.8125 14.027344 C 2.8125 13.703125 3.074219 13.441406 3.398438 13.441406 C 3.722656 13.441406 3.984375 13.703125 3.984375 14.027344 L 3.984375 14.03125 C 3.984375 14.355469 3.722656 14.617188 3.398438 14.617188 Z M 3.398438 14.617188 "/>
</g>
</svg>
