<?xml version="1.0" encoding="UTF-8"?>
<svg xmlns="http://www.w3.org/2000/svg" xmlns:xlink="http://www.w3.org/1999/xlink" width="30pt" height="30pt" viewBox="0 0 30 30" version="1.1">
<g id="surface1">
<path style=" stroke:none;fill-rule:nonzero;fill:rgb(0%,0%,0%);fill-opacity:1;" d="M 15 21.992188 C 14.675781 21.992188 14.414062 22.253906 14.414062 22.578125 C 14.414062 22.578125 14.414062 22.578125 14.414062 22.582031 L 14.414062 22.585938 C 14.414062 22.910156 14.675781 23.171875 15 23.171875 C 15.324219 23.171875 15.585938 22.910156 15.585938 22.585938 C 15.585938 22.585938 15.585938 22.582031 15.585938 22.582031 C 15.585938 22.578125 15.585938 22.578125 15.585938 22.578125 C 15.585938 22.253906 15.324219 21.992188 15 21.992188 Z M 15 21.992188 "/>
<path style=" stroke:none;fill-rule:nonzero;fill:rgb(0%,0%,0%);fill-opacity:1;" d="M 24.257812 0 L 5.742188 0 C 2.574219 0 0 2.574219 0 5.742188 L 0 24.257812 C 0 27.425781 2.574219 30 5.742188 30 L 15 30 C 15.324219 30 15.585938 29.738281 15.585938 29.414062 L 15.585938 24.875 C 15.585938 24.550781 15.324219 24.289062 15 24.289062 C 14.675781 24.289062 14.414062 24.550781 14.414062 24.875 L 14.414062 28.828125 L 5.742188 28.828125 C 3.222656 28.828125 1.171875 26.777344 1.171875 24.257812 L 1.171875 5.742188 C 1.171875 3.222656 3.222656 1.171875 5.742188 1.171875 L 24.257812 1.171875 C 26.777344 1.171875 28.828125 3.222656 28.828125 5.742188 L 28.828125 24.257812 C 28.828125 26.777344 26.777344 28.828125 24.257812 28.828125 L 20.507812 28.828125 L 20.507812 18.488281 L 23.90625 18.488281 C 24.207031 18.488281 24.457031 18.257812 24.488281 17.960938 L 24.910156 13.773438 C 24.925781 13.609375 24.871094 13.445312 24.761719 13.320312 C 24.648438 13.199219 24.492188 13.128906 24.328125 13.128906 L 20.507812 13.128906 L 20.507812 10.929688 C 20.507812 10.53125 20.632812 10.382812 20.976562 10.382812 L 24.300781 10.382812 C 24.625 10.382812 24.886719 10.121094 24.886719 9.796875 L 24.886719 5.714844 C 24.886719 5.390625 24.625 5.128906 24.300781 5.128906 L 19.933594 5.128906 C 17.460938 5.128906 16.148438 6.214844 15.484375 7.128906 C 14.554688 8.402344 14.414062 9.910156 14.414062 10.691406 L 14.414062 13.152344 L 11.542969 13.152344 C 11.21875 13.152344 10.957031 13.417969 10.957031 13.738281 L 10.957031 17.898438 C 10.957031 18.222656 11.21875 18.484375 11.542969 18.484375 L 14.414062 18.484375 L 14.414062 20.15625 C 14.414062 20.480469 14.675781 20.742188 15 20.742188 C 15.324219 20.742188 15.585938 20.480469 15.585938 20.15625 L 15.585938 17.898438 C 15.585938 17.578125 15.324219 17.3125 15 17.3125 L 12.128906 17.3125 L 12.128906 14.324219 L 15 14.324219 C 15.324219 14.324219 15.585938 14.0625 15.585938 13.738281 L 15.585938 10.691406 C 15.585938 9.371094 16.007812 6.300781 19.933594 6.300781 L 23.714844 6.300781 L 23.714844 9.210938 L 20.976562 9.210938 C 20.21875 9.210938 19.335938 9.660156 19.335938 10.929688 L 19.335938 13.714844 C 19.335938 14.039062 19.597656 14.300781 19.921875 14.300781 L 23.679688 14.300781 L 23.375 17.3125 L 19.921875 17.3125 C 19.597656 17.3125 19.335938 17.578125 19.335938 17.898438 L 19.335938 29.414062 C 19.335938 29.738281 19.597656 30 19.921875 30 L 24.257812 30 C 27.425781 30 30 27.425781 30 24.257812 L 30 5.742188 C 30 2.574219 27.425781 0 24.257812 0 Z M 24.257812 0 "/>
<path style=" stroke:none;fill-rule:nonzero;fill:rgb(0%,0%,0%);fill-opacity:1;" d="M 3.398438 6.007812 C 3.074219 6.007812 2.8125 6.269531 2.8125 6.59375 L 2.8125 11.484375 C 2.8125 11.808594 3.074219 12.070312 3.398438 12.070312 C 3.722656 12.070312 3.984375 11.808594 3.984375 11.484375 L 3.984375 6.59375 C 3.984375 6.269531 3.722656 6.007812 3.398438 6.007812 Z M 3.398438 6.007812 "/>
<path style=" stroke:none;fill-rule:nonzero;fill:rgb(0%,0%,0%);fill-opacity:1;" d="M 3.398438 13.441406 C 3.074219 13.441406 2.8125 13.703125 2.8125 14.027344 L 2.8125 14.035156 C 2.8125 14.355469 3.074219 14.621094 3.398438 14.621094 C 3.722656 14.621094 3.984375 14.355469 3.984375 14.035156 L 3.984375 14.027344 C 3.984375 13.703125 3.722656 13.441406 3.398438 13.441406 Z M 3.398438 13.441406 "/>
</g>
</svg>
