<svg width="97" height="79" viewBox="0 0 97 79" fill="none" xmlns="http://www.w3.org/2000/svg">
<path d="M21.7705 58.8672C23.3382 54.0047 27.1268 52.7891 28.8251 52.7891C29.315 56.4164 34.4099 64.3572 40.8766 67.6904C45.9716 70.0433 49.1396 69.5204 50.0868 68.9649C50.2174 69.455 50.4591 70.9648 50.3807 73.0824C50.2827 75.7293 47.2453 78.7684 42.0524 78.1802C37.898 77.7096 31.6992 73.4091 29.119 71.3177C26.8655 69.259 22.6523 65.0435 21.7705 58.8672Z" fill="white"/>
<path fill-rule="evenodd" clip-rule="evenodd" d="M26.0424 20.6811C27.7734 27.2168 29.6449 42.6283 29.2529 50.7848C35.639 66.3717 50.3382 68.4372 51.6473 68.6211L51.6904 68.6272C55.1197 69.1174 69.5228 70.2938 79.6148 56.1767C86.4734 42.7459 74.6178 43.1381 73.442 43.2361C72.5602 43.5302 70.5418 44.6674 69.5228 46.8634C68.7228 48.0161 68.184 48.8342 67.7734 49.4576L67.7734 49.4576C66.927 50.7429 66.6253 51.2011 65.7016 52.0592C64.3299 53.3337 60.6066 56.1767 55.0217 52.0592C50.6126 47.8437 51.4944 42.8439 51.7884 41.6675C52.4742 39.4127 55.1197 34.8443 60.2147 34.609C65.3097 34.3737 68.8043 38.7591 69.9147 40.9813C70.8292 42.0923 73.736 43.7851 78.0471 41.6675C82.3582 39.55 80.2353 32.681 78.635 29.5112C77.6878 27.8446 75.0293 24.1976 71.9723 22.9428L71.9772 22.927C68.7506 21.4332 63.0505 20.4225 57.3712 21.2872C51.669 22.1553 46.0673 24.8985 42.9832 30.8487L42.0954 30.3885C45.3716 24.0677 51.3133 21.198 57.2207 20.2986C62.9226 19.4304 68.6668 20.3834 72.1225 21.8959C72.1716 20.2683 71.5659 17.4509 68.2568 15.2865C56.4729 11.8868 48.1078 15.5951 43.8757 18.8654C41.7481 20.5094 40.1027 22.59 38.9859 24.2706C38.4287 25.1089 38.0062 25.8431 37.7236 26.3663C37.5823 26.6278 37.4762 26.8364 37.4058 26.9785C37.3707 27.0495 37.3444 27.104 37.3273 27.1401L37.3083 27.1804L37.3039 27.1898L37.303 27.1918L37.3029 27.1921C37.3029 27.192 37.3029 27.1919 36.8482 26.9839C36.3936 26.7759 36.3936 26.7758 36.3937 26.7757L36.3938 26.7753L36.3944 26.7742L36.396 26.7706L36.4019 26.7578L36.4241 26.7108C36.4435 26.67 36.472 26.6108 36.5096 26.5349C36.5848 26.3829 36.6964 26.1638 36.8437 25.8911C37.1382 25.3458 37.5763 24.5849 38.153 23.7171C39.3039 21.9852 41.0194 19.8087 43.2642 18.0741C47.2726 14.9767 54.7266 11.5749 65.0403 13.4951C56.3456 8.56673 42.7341 11.4474 37.0331 18.378C36.4424 19.2168 35.8707 20.175 35.3693 21.1432C34.563 22.6999 33.9631 24.2344 33.7523 25.2888L32.7717 25.0927C33.0089 23.9065 33.6559 22.277 34.4813 20.6833C34.7449 20.1744 35.0292 19.6642 35.3277 19.1685V10.7438C34.7871 5.57629 34.4236 3.86699 32.1923 1.99888C29.8185 0.0114334 25.446 0.99621 24.5501 3.39007C23.8922 5.14773 23.9352 5.9778 24.0033 7.29461C24.0276 7.76462 24.0551 8.29663 24.0551 8.95496C24.0551 10.6216 25.2586 17.7215 26.0424 20.6811Z" fill="white"/>
<path d="M15.1507 12.8997C10.5748 23.4281 4.16856 48.6787 15.1507 65.4528" stroke="white"/>
<path d="M81.8521 12.8997C85.9196 23.2932 91.6141 48.2199 81.8521 64.7791" stroke="white"/>
<path d="M92.6312 22.3318C95.1734 28.6759 98.7324 43.8909 92.6312 53.9985" stroke="white"/>
<path d="M4.36879 23.0056C1.82662 29.4847 -1.73242 45.0235 4.36879 55.346" stroke="white"/>
</svg>
