<svg width="108" height="88" viewBox="0 0 108 88" fill="none" xmlns="http://www.w3.org/2000/svg">
<path d="M24.1768 65.5759C25.926 60.1503 30.1532 58.7939 32.0482 58.7939C32.5948 62.8413 38.2797 71.7016 45.4952 75.4207C51.1801 78.046 54.7149 77.4626 55.7717 76.8427C55.9175 77.3897 56.1872 79.0742 56.0997 81.437C55.9904 84.3904 52.6013 87.7814 46.8071 87.1251C42.1717 86.6 35.255 81.8016 32.3761 79.468C29.8617 77.1709 25.1607 72.4673 24.1768 65.5759Z" fill="white"/>
<path fill-rule="evenodd" clip-rule="evenodd" d="M28.9415 22.9675C30.8729 30.26 32.961 47.456 32.5237 56.5569C39.6492 73.9486 56.0504 76.2532 57.5111 76.4585L57.5592 76.4653C61.3856 77.0122 77.4564 78.3249 88.7169 62.5732C96.3697 47.5872 83.1413 48.0248 81.8294 48.1342C80.8455 48.4623 78.5934 49.7312 77.4564 52.1815C76.5637 53.4677 75.9626 54.3805 75.5045 55.0761C74.56 56.5102 74.2234 57.0214 73.1927 57.979C71.6622 59.401 67.5078 62.5732 61.2763 57.979C56.3566 53.2753 57.3406 47.6966 57.6685 46.384C58.4338 43.8681 61.3856 38.7707 67.0705 38.5081C72.7554 38.2456 76.6547 43.1388 77.8937 45.6183C78.9141 46.858 82.1574 48.7467 86.9677 46.384C91.7781 44.0212 89.4093 36.3569 87.6237 32.82C86.5669 30.9605 83.6005 26.8913 80.1895 25.4911C80.1968 25.4677 80.2041 25.4431 80.2112 25.4172C76.5986 23.7471 70.231 22.6203 63.888 23.5861C57.5137 24.5566 51.2437 27.6247 47.7914 34.2853L46.9036 33.8251C50.548 26.7939 57.158 23.5992 63.7375 22.5975C70.102 21.6285 76.5126 22.6968 80.355 24.3852C80.4281 22.5524 79.759 19.295 75.8734 16.8388C62.8039 13.1329 53.518 17.2545 48.8059 20.8957C46.4252 22.7353 44.5853 25.0623 43.3371 26.9405C42.7144 27.8776 42.242 28.6984 41.926 29.2835C41.768 29.5759 41.6493 29.8092 41.5705 29.9683C41.5311 30.0479 41.5017 30.1089 41.4824 30.1495L41.461 30.1948L41.4561 30.2055L41.455 30.2078L41.4548 30.2082C41.4549 30.2082 41.4549 30.2081 41.0002 30.0001C40.5455 29.7921 40.5456 29.792 40.5457 29.7918L40.5458 29.7914L40.5464 29.7902L40.5482 29.7863L40.5547 29.7722L40.5793 29.7201C40.6008 29.6749 40.6325 29.6092 40.6743 29.5247C40.7579 29.3557 40.8821 29.1119 41.0461 28.8082C41.374 28.2011 41.8619 27.3536 42.5043 26.387C43.7865 24.4576 45.6966 22.0346 48.1945 20.1044C52.6765 16.641 61.0336 12.8319 72.6068 15.0365C62.6454 9.26199 46.7503 12.8078 40.6964 21.0512C40.2019 21.8108 39.728 22.6309 39.3001 23.4571C38.3994 25.1962 37.7274 26.9138 37.4905 28.0979L36.5099 27.9018C36.7731 26.5859 37.4923 24.7732 38.4122 22.9972C38.6902 22.4603 38.9889 21.9225 39.3019 21.3984V11.8797C38.6987 6.11378 38.2931 4.20656 35.8035 2.12214C33.1548 -0.0954274 28.276 1.00338 27.2763 3.67442C26.5423 5.6356 26.5902 6.56178 26.6662 8.03107C26.6933 8.55549 26.724 9.1491 26.724 9.88366C26.724 11.7432 28.0669 19.6653 28.9415 22.9675Z" fill="white"/>
<path d="M16.7874 14.2854C11.6817 26.033 4.53364 54.2072 16.7874 72.9237" stroke="white"/>
<path d="M91.2129 14.2854C95.7513 25.8824 102.105 53.6954 91.2129 72.1719" stroke="white"/>
<path d="M103.241 24.8105C106.078 31.8892 110.049 48.866 103.241 60.1439" stroke="white"/>
<path d="M4.75887 25.5623C1.92234 32.7915 -2.0488 50.1295 4.75887 61.6474" stroke="white"/>
</svg>
